<svg width="15" height="19" viewBox="0 0 15 19" fill="none" xmlns="http://www.w3.org/2000/svg">
<path d="M0.292745 10.9287C-0.0976801 11.3191 -0.097482 11.9522 0.292745 12.3428L6.657 18.707C7.04753 19.0976 7.68054 19.0976 8.07107 18.707L14.4353 12.3428C14.8256 11.9522 14.8257 11.3191 14.4353 10.9287C14.0449 10.5383 13.4118 10.5385 13.0213 10.9287L8.36403 15.5859L8.36403 1C8.36403 0.447715 7.91632 -3.46033e-07 7.36403 -3.21892e-07C6.81175 -2.97751e-07 6.36403 0.447715 6.36403 1L6.36403 15.5859L1.70681 10.9287C1.31626 10.5385 0.68317 10.5383 0.292745 10.9287Z" fill="#C1C0C0"/>
</svg>
