<svg width="27" height="27" viewBox="0 0 27 27" fill="none" xmlns="http://www.w3.org/2000/svg">
<path d="M25.3042 1.48853H16.3733V4.46552H22.3272V10.4195H25.3042V1.48853Z" fill="#EAEAEA"/>
<path d="M25.3042 16.3735H22.3272V22.3275H16.3733V25.3045H25.3042V16.3735Z" fill="#EAEAEA"/>
<path d="M4.46528 10.4195V4.46552H10.4193V1.48853H1.48828V10.4195H4.46528Z" fill="#EAEAEA"/>
<path d="M1.48828 16.3735V25.3045H10.4193V22.3275H4.46528V16.3735H1.48828Z" fill="#EAEAEA"/>
<path d="M5.20996 15.6292V21.5833H11.1631V26.0491H0.744141V15.6292H5.20996ZM26.0488 15.6292V26.0491H15.6289V21.5833H21.583V15.6292H26.0488ZM11.1631 0.744385V5.21021H5.20996V11.1633H0.744141V0.744385H11.1631ZM26.0488 0.744385V11.1633H21.583V5.21021H15.6289V0.744385H26.0488Z" stroke="black" stroke-opacity="0.1" stroke-width="1.48849"/>
</svg>
